<?xml version="1.0" encoding="UTF-8"?>
<svg xmlns="http://www.w3.org/2000/svg" version="1.1" viewBox="0 0 496 512">
  <!-- Generator: Adobe Illustrator 29.8.2, SVG Export Plug-In . SVG Version: 2.1.1 Build 3)  -->
  <defs>
    <style>
      .st0 {
        fill: #fff;
      }

      .st1 {
        display: none;
      }
    </style>
  </defs>
  <g id="Layer_1">
    <path class="st0" d="M248,28c30.77,0,60.62,6.03,88.71,17.92,27.15,11.49,51.53,27.94,72.49,48.89,20.95,20.95,37.4,45.34,48.89,72.49,11.89,28.09,17.92,57.94,17.92,88.71s-6.03,60.62-17.92,88.71c-11.49,27.15-27.94,51.53-48.89,72.49-20.95,20.95-45.34,37.4-72.49,48.89-28.09,11.89-57.94,17.92-88.71,17.92s-60.62-6.03-88.71-17.92c-27.15-11.49-51.53-27.94-72.49-48.89s-37.4-45.34-48.89-72.49c-11.89-28.09-17.92-57.94-17.92-88.71s6.03-60.62,17.92-88.71c11.49-27.15,27.94-51.53,48.89-72.49,20.95-20.95,45.34-37.4,72.49-48.89,28.09-11.89,57.94-17.92,88.71-17.92M248,8C111.1,8,0,119.1,0,256s111.1,248,248,248,248-111.1,248-248S384.9,8,248,8h0Z"/>
    <path class="st0" d="M394.13,229.36c-4.8.28-7.83-.74-12.13-2.9-68.09-35.4-186.25-37.9-261.13-12.18-3.27,1.12-7.34,2.84-11.78,3.1-12.19.72-22.09-8.25-22.81-20.54s6.6-20.13,14.78-23.03c31.96-11.43,68.09-18.1,107.73-20.43,67.44-3.97,138.94,5.92,192.36,33,7.45,3.73,12.5,9.18,13.15,20.18.74,12.56-8.9,22.12-20.17,22.79h0ZM369.63,301.44c-4.8.28-8.16-1.65-11.59-3.21-59.75-30.79-146.66-39.49-222.03-14.2-4.36,1.46-6.7,2.8-10.85,3.05-9.89.58-18.4-6.98-18.98-16.87s3.84-16.73,13.2-19.97c25.26-8.72,51.18-15.62,89.61-17.88,59.96-3.53,118.76,7.94,165.99,32.42,7.74,3.99,11.04,9.55,11.51,17.59.49,9.98-6.79,18.48-16.86,19.07ZM348.34,363.51c-3.88.23-6.35-.83-10.08-2.74-59.69-31.35-126.85-28.88-192.29-11.41-3.55,1.14-8.17,2.89-10.85,3.05-8.96.53-15.02-6.26-15.46-13.74-.56-9.52,4.81-14.37,11.65-16.26,74.68-21.17,152.09-24.24,220.38,11.33,5.85,3.27,9.36,6.31,9.86,14.72.49,8.41-5.72,14.61-13.21,15.05h0Z"/>
  </g>
  <g id="Layer_1_copy" class="st1">
    <path class="st0" d="M248,8C111.1,8,0,119.1,0,256s111.1,248,248,248,248-111.1,248-248S384.9,8,248,8ZM348.7,372.9h0c-4.2,0-6.8-1.3-10.7-3.6-62.4-37.6-135-39.2-206.7-24.5-3.9,1-9,2.6-11.9,2.6-9.7,0-15.8-7.7-15.8-15.8,0-10.3,6.1-15.2,13.6-16.8,81.9-18.1,165.6-16.5,237,26.2,6.1,3.9,9.7,7.4,9.7,16.5s-7.1,15.4-15.2,15.4ZM375.6,307.3c-5.2,0-8.7-2.3-12.3-4.2-62.5-37-155.7-51.9-238.6-29.4-4.8,1.3-7.4,2.6-11.9,2.6-10.7,0-19.4-8.7-19.4-19.4s5.2-17.8,15.5-20.7c27.8-7.8,56.2-13.6,97.8-13.6,64.9,0,127.6,16.1,177,45.5,8.1,4.8,11.3,11,11.3,19.7-.1,10.8-8.5,19.5-19.4,19.5ZM406.6,231.1h0c-5.2,0-8.4-1.3-12.9-3.9-71.2-42.5-198.5-52.7-280.9-29.7-3.6,1-8.1,2.6-12.9,2.6-13.2,0-23.3-10.3-23.3-23.6s8.4-21.3,17.4-23.9c35.2-10.3,74.6-15.2,117.5-15.2,73,0,149.5,15.2,205.4,47.8,7.8,4.5,12.9,10.7,12.9,22.6,0,13.6-11,23.3-23.2,23.3Z"/>
  </g>
</svg>